<?xml version="1.0" encoding="UTF-8" standalone="no"?>
<svg
   width="16"
   height="48"
   viewBox="0 0 16 48"
   fill="none"
   version="1.1"
   id="svg4"
   sodipodi:docname="like.svg"
   inkscape:version="1.1-dev (fe57c8e, 2020-11-02)"
   xmlns:inkscape="http://www.inkscape.org/namespaces/inkscape"
   xmlns:sodipodi="http://sodipodi.sourceforge.net/DTD/sodipodi-0.dtd"
   xmlns="http://www.w3.org/2000/svg"
   xmlns:svg="http://www.w3.org/2000/svg">
  <defs
     id="defs8" />
  <sodipodi:namedview
     pagecolor="#ffffff"
     bordercolor="#666666"
     borderopacity="1"
     objecttolerance="10"
     gridtolerance="10"
     guidetolerance="10"
     inkscape:pageopacity="0"
     inkscape:pageshadow="2"
     inkscape:window-width="1920"
     inkscape:window-height="1017"
     id="namedview6"
     showgrid="false"
     inkscape:zoom="13.4375"
     inkscape:cx="19.944186"
     inkscape:cy="28.837209"
     inkscape:window-x="-8"
     inkscape:window-y="-8"
     inkscape:window-maximized="1"
     inkscape:current-layer="svg4" />
  <rect
     style="fill:#ffff00;fill-opacity:0;stroke:none;stroke-width:1.8822;stroke-linecap:round;stroke-dasharray:5.64661, 5.64661;paint-order:markers stroke fill;stop-color:#000000"
     id="rect1072"
     width="16"
     height="16"
     x="0"
     y="32" />
  <path
     d="M 7.99998,15.1099 C 7.7722,15.1099 7.5526,15.0273 7.38146,14.8774 6.73509,14.3123 6.11193,13.7811 5.56212,13.3126 L 5.55932,13.3102 C 3.94738,11.9365 2.55542,10.7502 1.58691,9.58167 0.504272,8.27527 0,7.03662 0,5.68347 0,4.36877 0.450805,3.15588 1.26928,2.26807 2.09753,1.36975 3.234,0.875 4.46972,0.875 5.3933,0.875 6.23912,1.16699 6.98363,1.7428 7.35936,2.03345 7.69994,2.38916 7.99998,2.80408 8.30015,2.38916 8.64061,2.03345 9.01646,1.7428 9.76097,1.16699 10.6068,0.875 11.5304,0.875 c 1.2356,0 2.3722,0.49475 3.2004,1.39307 C 15.5493,3.15588 16,4.36877 16,5.68347 16,7.03662 15.4958,8.27527 14.4132,9.58154 13.4447,10.7502 12.0528,11.9364 10.4411,13.3099 9.89036,13.7792 9.26622,14.3112 8.61839,14.8777 8.44737,15.0273 8.22765,15.1099 7.99998,15.1099 Z M 4.46972,1.81226 c -0.97083,0 -1.86267,0.38745 -2.51147,1.09106 -0.65845,0.71423 -1.021118,1.70154 -1.021118,2.78015 0,1.13806 0.422968,2.15589 1.371338,3.30017 0.91662,1.10606 2.28002,2.26796 3.85863,3.61326 l 0.00293,0.0025 c 0.55188,0.4703 1.17749,1.0035 1.82861,1.5728 0.65503,-0.5704 1.28162,-1.1045 1.83459,-1.5755 1.57847,-1.3454 2.94177,-2.507 3.85837,-3.61306 0.9483,-1.14428 1.3712,-2.16211 1.3712,-3.30017 0,-1.07861 -0.3626,-2.06592 -1.0211,-2.78015 -0.6487,-0.70361 -1.5406,-1.09106 -2.5113,-1.09106 -0.7112,0 -1.3642,0.22607 -1.9407,0.67187 C 9.07591,2.88159 8.718,3.38403 8.50816,3.7356 8.40025,3.91638 8.21031,4.02429 7.99998,4.02429 7.78966,4.02429 7.59972,3.91638 7.49181,3.7356 7.28209,3.38403 6.92418,2.88159 6.41027,2.48413 5.83373,2.03833 5.18078,1.81226 4.46972,1.81226 Z"
     fill="#000000"
     fill-opacity="0.75"
     id="path2" />
  <rect
     style="fill:#ffff00;fill-opacity:0;stroke:none;stroke-width:1.8822;stroke-linecap:round;stroke-dasharray:5.64661, 5.64661;paint-order:markers stroke fill;stop-color:#000000"
     id="rect847"
     width="16"
     height="16"
     x="0"
     y="16" />
  <g
     style="fill:none"
     id="g1070"
     transform="matrix(1.1206869,0,0,1.1206869,-0.96551873,32.1553)">
    <path
       d="M 8,2.56911 C 7.26154,1.33835 6.03077,0.476807 4.55385,0.476807 c -2.09231,0 -3.692308,1.600003 -3.692308,3.692303 0,4.06154 2.215388,4.67693 7.138458,9.35389 4.9231,-4.67696 7.1385,-5.29235 7.1385,-9.35389 0,-2.0923 -1.6,-3.692303 -3.6923,-3.692303 C 9.96923,0.476807 8.73846,1.33835 8,2.56911 Z"
       fill="#ff0707"
       id="path1061" />
  </g>
</svg>
